<?xml version="1.0" encoding="utf-8"?>
<!-- Generator: Adobe Illustrator 19.0.0, SVG Export Plug-In . SVG Version: 6.00 Build 0)  -->
<svg version="1.1" id="Calque_1" xmlns="http://www.w3.org/2000/svg" xmlns:xlink="http://www.w3.org/1999/xlink" x="0px" y="0px"
	 viewBox="-551 809 432 432" style="enable-background:new -551 809 432 432;" xml:space="preserve">
<style type="text/css">
	.st0{fill:#25E899;}
	.st1{fill:#0D0764;}
</style>
<path class="st0" d="M-182.3,1006.6c0.2-0.5,0.3-1-0.1-1.4c-0.4-0.5-0.9-0.6-1.4-0.4c-1.2,0.3-2.4,0.2-3.5-0.2
	c-1.1-0.4-1.9-0.1-2.7,0.8c-0.6,0.8-1.3,1.4-2.1,2.1c-0.7,0.7-1.7,1-2.7,1.1c-0.4,0-0.8,0-1.1,0c-0.9,0.1-1.3,0.4-1.5,1.3
	c-0.1,0.6-0.2,1.2-0.3,1.8c-0.5,2.1-1.3,4-2.6,5.6c-0.2,0.2-0.3,0.3-0.6,0.5c-0.3-3.5,1.3-21.6,2.2-24.1c1.1,0.2,2-0.2,2.8-1
	c0.8-0.7,1.3-1.7,1.6-2.7c0.4-1.7,0.3-3.3-0.8-4.8c-1.1-1.5-2.9-1.7-4.5-0.7c-0.8,0.6-1.5,1.3-1.9,2.2c-0.9,2.1-0.9,4.2,0.6,6.2
	c0.3,0.3,0.2,0.6,0.1,1c-1.1,5-1.6,10-1.9,15.1c-0.2,3.4-0.3,6.8-0.5,10.1c-0.3,4.3-1.1,8.4-2.4,12.5c-1.3,4.1-3,8.1-4.7,12
	c0,0.1-0.1,0.2-0.2,0.3c0-0.3,0-0.5,0-0.7c0.2-1.3,0.4-2.7,0.5-4c0.8-5.6,1.6-11.3,1.9-17c0.2-3.3,0.1-6.6-0.3-9.9
	c-0.5-4.1-1.2-8.1-2.1-12c-0.1-0.3-0.1-0.6-0.1-0.9c-0.1-4.2,0.3-8.3,1.2-12.4c1-4.5,2.5-8.8,4.9-12.8c1.8-3,3.9-5.9,6-8.8
	c0.1-0.1,0.1-0.2,0.2-0.3c1.6,0.8,2.9,0.4,4.1-0.6c1.6-1.4,2.6-3.2,2.9-5.4c0.2-1.3-0.1-2.5-1.3-3.3c-1.2-0.8-2.4-0.8-3.7-0.1
	c-2.1,1.3-3.3,3.1-3.6,5.5c-0.1,0.8,0.1,1.6,0.2,2.6c-0.8,1.1-1.8,2.4-2.7,3.6c-0.9,1.3-1.8,2.6-2.7,3.9c-0.1-0.1-0.2-0.2-0.2-0.2
	c-0.6-2-1.4-3.9-2.5-5.6c-0.2-0.3-0.1-0.6-0.1-0.9c0.2-2.1-0.4-3.9-2.1-5.2c-1.4-1.1-3.1-0.4-3.5,1.4c-0.2,1.1,0,2.1,0.3,3.1
	c0.3,0.8,0.7,1.6,1.4,2.1c0.7,0.5,1.5,0.7,2.3,0.6c0.8,1.2,2.6,5.4,2.9,6.6c0.1,0.4-0.1,0.7-0.2,1c-3.1,5.3-4.9,11-5.7,17
	c0,0.2-0.1,0.4-0.2,0.8c-0.1-0.4-0.2-0.6-0.3-0.9c-1.4-4.4-2.8-8.8-4.3-13.1c-2-5.6-4.7-10.9-7.7-16c-0.2-0.4-0.5-0.8-0.5-1.3
	c-0.1-2.2,0.2-4.4,0.8-6.6c0.5-1.6,1.6-2.4,3.2-2.7c0.4-0.1,0.9-0.1,1.3-0.1c1,0,1.9,0.1,2.9,0.2c1.3,0.1,1.8-1.1,1.4-2
	c-0.4-1.1-0.7-2.3-1-3.4c-0.6-2.8,0.1-5.4,2-7.6c1-1.1,2-2.1,3.2-2.9c0.7-0.5,1.5-1,2.2-1.5c0.9-0.7,1.1-1.6,0.5-2.6
	c-0.1-0.3-0.3-0.5-0.5-0.7c-0.5-0.8-1.1-1.5-1.6-2.3c-1.9-2.7-2.4-5.7-2-8.9c0.2-1.6,0.7-3.2,1-4.8c0.1-0.6,0.2-1.2,0.3-1.8
	c0-0.6-0.3-1-0.9-1.2c-0.5-0.2-1-0.1-1.4,0.3c-0.3,0.3-0.5,0.6-0.7,0.9c-1.2,1.5-2.4,3.1-3.7,4.6c-0.6,0.7-1.3,1.3-2,1.9
	c-1.5,1.2-3.2,2.1-5.2,2.2c-0.3,0-0.6,0.1-0.9,0.1c-0.9,0.2-1.4,0.7-1.5,1.6c-0.1,0.6-0.1,1.1-0.1,1.7c-0.1,1.1-0.1,2.1-0.2,3.2
	c-0.4,3.1-1.6,5.9-3.8,8.2c-0.4,0.4-0.8,0.8-1.1,1.2c-1.1,1.3-1.2,2.2-0.5,3.6c0.6,1.2,1.2,2.3,1.9,3.4c1,1.8,1.8,3.6,2.4,5.6
	c0.3,1.1,0.6,2.2,0.5,3.3c0,0.6,0,1.2,0,1.9c-0.3-0.1-0.4-0.2-0.5-0.4c-2.1-2.7-4.1-5.4-6.3-8.1c-2.4-3-4.9-5.9-7.3-8.8
	c-0.2-0.3-0.4-0.6-0.6-1c-1.7-3.8-2.7-7.7-3.2-11.8c-0.2-1.5-0.1-3.1-0.1-4.6c0-0.2,0.1-0.5,0.2-0.6c1.1-1.5,2.5-2.4,4.4-2.6
	c0.7-0.1,1.3-0.1,2-0.1c0.9,0,1.7,0,2.6-0.1c1.4-0.1,2.1-0.9,2.1-2.2c0-0.3,0-0.7-0.1-1c-0.4-2.2-0.5-4.5-0.1-6.7
	c0.4-2.6,1.5-4.9,3.5-6.7c0.3-0.2,0.5-0.5,0.8-0.7c1.3-1,1.2-2.4,0.2-3.5c-0.6-0.7-1.2-1.3-1.8-2c-1.4-1.6-2.2-3.4-2.5-5.5
	c-0.1-0.7-0.1-1.4-0.1-2.2c0-1,0-2,0-3c0-0.7-0.3-1.2-1-1.4c-0.6-0.3-1.1-0.1-1.6,0.3c-0.3,0.3-0.6,0.6-0.9,0.9
	c-1,1.3-2.1,2.6-3.1,4c-0.9,1.2-2,2.3-3.3,3.1c-0.8,0.5-1.8,1-2.7,1.3c-1.3,0.5-1.7,0.8-1.5,2.2c0.1,1.3,0.3,2.6,0.5,3.9
	c0.2,1.4,0.1,2.8-0.4,4.2c-0.4,1.4-1.2,2.6-2.1,3.7c-0.5,0.6-1,1.2-1.4,1.8c-0.6,0.8-0.7,1.6-0.1,2.5c0.3,0.4,0.6,0.9,1,1.3
	c1.5,1.8,2.4,3.9,2.9,6.2c0.1,0.4,0.2,0.8,0.1,1.2c-0.2,2-0.2,4,0,6c0.2,1.7,0.3,3.3,0.5,5c0.1,1,0.3,1.9,0.5,3
	c-0.2-0.1-0.3-0.2-0.4-0.3c-1.1-1-2.2-2-3.3-3.1c-0.2-0.2-0.4-0.5-0.6-0.8c-1-1.8-2-3.7-3-5.5c-3.1-5.4-5.1-11.2-6.2-17.3
	c-0.3-1.6-0.4-3.1-0.6-4.7c1-0.6,1.4-1.5,1.7-2.5c0.3-1.1,0.3-2.1,0-3.2c-0.3-0.9-0.6-1.8-1.2-2.6c-1.2-1.3-3-1.2-4,0.4
	c-0.2,0.3-0.3,0.7-0.4,1.1c-0.3,1.1-0.3,2.3-0.1,3.4c0.2,1.2,0.6,2.3,1.6,3.1c0.2,0.1,0.2,0.4,0.3,0.6c0.1,0.6,0.1,1.2,0.2,1.8
	c0.1,2.7,0.3,5.3,1,7.9c1.1,4.2,2.7,8.2,4.7,12c0.1,0.2,0.2,0.4,0.3,0.7c-0.4-0.1-0.6-0.3-0.9-0.4c-5-3.5-10.1-6.9-15.5-9.8
	c-0.5-0.3-1-0.5-1.4-0.8c-2.5-1.6-5.1-3.2-7.6-4.8c-1.2-0.7-2.4-1.4-3.6-2.2c-0.3-0.2-0.5-0.4-0.6-0.7c-1.1-2.2-2-4.5-2.1-6.9
	c-0.1-1.9-0.1-3.9-0.1-5.8c0-0.3,0.1-0.6,0.1-0.9c1.3-0.3,2.1-1.2,2.6-2.3c0.4-0.9,0.6-1.8,0.5-2.8c0-0.8-0.3-1.5-0.7-2.1
	c-1.3-2.1-4.1-2.1-5.3,0c-0.5,0.8-0.6,1.6-0.5,2.5c0.1,1.3,0.6,2.4,1.2,3.5c0.2,0.3,0.2,0.6,0.2,1c-0.1,1.5-0.2,2.9-0.2,4.4
	c-0.1,2.3,0.1,4.5,0.8,6.7c0,0.1,0,0.2,0,0.4c-0.3-0.3-0.5-0.4-0.7-0.6c-3.1-3-5.7-6.4-7.4-10.4c-0.4-0.9-0.7-1.7-1.1-2.6
	c-0.2-0.4-0.2-0.7,0.1-1.1c0.4-0.6,0.7-1.4,0.6-2.1c-0.1-1.9-0.9-3.5-2.4-4.6c-1.1-0.9-2.4-0.9-3.6-0.2c-1.1,0.7-1.7,2-1.4,3.3
	c0.4,1.8,1.3,3.5,3,4.3c1.2,0.6,1.7,1.4,2,2.5c0,0,0,0.1,0,0.1c1.9,5.2,4.7,9.9,8.9,13.6c0.1,0.1,0.1,0.2,0.2,0.3
	c-0.2-0.1-0.4-0.1-0.5-0.1c-6.1-2.2-12.5-3.5-18.9-4.6c-1.2-0.2-2.4-0.3-3.5-0.7c-1.8-0.6-3.7-1.3-5.5-2c-1.7-0.6-3.3-1.4-4.9-2.4
	c-0.2-0.1-0.5-0.4-0.6-0.6c-0.3-1-0.5-2-0.3-3.1c0.2-1.2,0.6-2.4,0.9-3.6c0.1-0.6,0.4-1.2,0.5-1.8c0.2-0.9-0.2-1.6-0.9-2.2
	c-0.3-0.2-0.6-0.3-0.9-0.4c-0.8-0.4-1.5-0.7-2.2-1.1c-1.8-1-2.9-2.6-3.3-4.6c-0.1-0.3-0.1-0.6-0.2-0.9c-0.4-1.4-1.3-2-2.7-1.7
	c-0.8,0.2-1.6,0.4-2.4,0.6c-2.6,0.6-4.9,0-7-1.6c-0.2-0.2-0.5-0.3-0.7-0.5c-0.5-0.3-1.1-0.5-1.6-0.1c-0.6,0.4-0.6,0.9-0.6,1.5
	c0.1,0.5,0.2,1.1,0.2,1.6c0.3,1.8,0,3.5-1.1,4.9c0,0-0.1,0.1-0.1,0.1c-0.7,1.1-0.6,1.8,0.5,2.5c0.7,0.5,1.5,0.9,2.2,1.4
	c0.7,0.5,1.4,1.1,2.1,1.7c1.1,1,1.7,2.3,1.5,3.8c-0.1,1.6,0.3,2.4,2.2,2.4c2.8,0.1,5.6,0.7,8.3,1.5c1.5,0.4,3,1,4,2.2
	c0.2,0.3,0.6,0.5,0.8,0.8c0.1,0.1,0.2,0.3,0.5,0.6c-5.9-0.4-11.6-0.2-17.3,0.1c-5.7,0.2-11.4,0.6-17,1.6c-0.7-1-1.2-2-1.3-3.1
	c-0.2-1.6-0.2-3.3-0.3-4.8c0.6-0.5,1.2-0.9,1.5-1.4c1.2-1.5,1.4-3.3,0.8-5.1c-0.3-1-1.1-1.6-2.1-2c-0.8-0.2-1.5-0.2-2.2,0.3
	c-2.7,2.1-2.2,5.2-0.4,7.1c0.6,0.6,0.9,1.2,0.8,2c0,0.4,0,0.9,0,1.3c0,1.6,0.1,3.2,0.8,4.8c0,0,0,0.1-0.1,0.2
	c-0.2-0.1-0.4-0.1-0.6-0.2c-1.5-0.6-2.8-1.5-3.9-2.5c-2.2-2.1-4-4.6-5.7-7.2c-0.2-0.3-0.2-0.5,0-0.8c0.5-1,0.4-2,0-2.9
	c-0.7-1.6-1.8-2.8-3.4-3.6c-0.9-0.4-1.8-0.8-2.8-0.8c-2.2,0.1-3.4,1.9-2.7,4c0.1,0.2,0.1,0.3,0.2,0.5c1.2,2.4,3.3,3.7,5.9,4.2
	c0.6,0.1,1,0.3,1.3,0.8c1,1.5,1.9,3,3,4.5c1.5,2.1,3.3,3.9,5.6,5.1c0,0,0,0.1,0.1,0.2c-0.1,0-0.2,0.1-0.3,0.1
	c-1.6,0.2-3.2,0.4-4.8,0.5c-2.9,0.2-5.9,0.5-8.8,0.6c-3.1,0.1-6.1-0.2-9.2-0.5c-0.8-0.1-1.5-0.4-2.2-0.8c-2.1-1.3-3.8-3.1-5.1-5.2
	c-0.8-1.2-1.4-2.5-2.1-3.8c-0.7-1.3-1.7-1.5-3-1c-0.8,0.3-1.7,0.7-2.5,0.8c-1,0.2-2,0.3-3,0.4c-3.2,0.4-6.1-0.5-8.5-2.7
	c-1.3-1.1-2.4-2.4-3.7-3.6c-0.3-0.3-0.5-0.6-0.8-0.8c-0.9-0.8-1.9-0.7-2.5,0.4c-0.9,1.7-2.3,3-3.7,4.2c-1.1,1-2.3,1.7-3.7,2.1
	c-1.6,0.5-3.3,0.8-5,1.2c-0.8,0.2-1.5,0.2-2.3,0.4c-0.7,0.2-1.2,0.6-1.2,1.2c0,0.7,0.3,1.1,0.9,1.3c0.4,0.2,0.9,0.4,1.4,0.5
	c1.6,0.4,3.3,0.8,5,1.2c5.5,1.4,9.3,4.6,11,10.1c0.1,0.5,0.3,1,0.5,1.5c0.4,1,1,1.4,2.1,1.4c0.4,0,0.7-0.1,1.1-0.2
	c0.7-0.2,1.5-0.3,2.2-0.5c2.4-0.6,4.7-0.6,7,0.5c0.4,0.2,0.9,0.3,1.4,0.5c1.3,0.6,2.4,0.3,3.3-0.7c0.5-0.6,1-1.1,1.5-1.7
	c1.4-1.5,3-2.7,4.8-3.6c1.1-0.6,2.4-1,3.6-1c0.7,0,1.3,0.1,2,0.2c3.9,0.4,7.9,0.7,11.9,0.5c0.3,0,0.6,0,0.9,0
	c-0.3,0.3-0.5,0.4-0.8,0.5c-3.2,1.3-6.4,2.4-9.6,3.8c-6.9,2.9-13.4,6.6-19.4,11.1c-3.4,2.6-6.8,5.3-10,8.2c-0.5,0.4-1,0.7-1.6,0.8
	c-2.8,0.7-5.7,0.7-8.5-0.2c-2.8-0.8-5.5-1.8-8.2-2.7c-0.8-0.3-1.6-0.6-2.4-0.9c-0.2-1.7-0.6-2.4-2.2-3.2c-0.9-0.4-1.9-0.8-2.9-1
	c-1.4-0.3-2.6,0-3.8,0.9c-1,0.8-1.2,1.8-0.6,2.8c0.4,0.7,0.9,1.3,1.6,1.7c1.1,0.6,2.2,1,3.4,1.1c1,0.1,2,0,2.9-0.4
	c0.3-0.2,0.6-0.1,0.9,0c2,0.8,4,1.6,6.1,2.3c2.2,0.8,4.5,1.6,6.9,2c0.7,0.1,1.5,0.2,2.4,0.3c-0.2,0.2-0.3,0.3-0.4,0.3
	c-4.3,1.9-8.6,3.6-13.2,4.4c-5,0.9-9.9,1.6-14.9,2.4c-0.9,0.1-1.8,0.2-2.7,0.3c-0.8-1.1-1.3-1.5-2.3-1.7c-1.7-0.3-3.3,0-4.8,0.8
	c-0.7,0.4-1.2,0.9-1.6,1.7c-0.6,1.2-0.2,2.5,0.9,3.2c0.6,0.3,1.2,0.6,1.8,0.7c0.8,0.1,1.6,0.1,2.3,0c1.7-0.3,3.4-0.8,4.1-2.6
	c4.8-0.5,9.6-1.1,14.4-1.6c-0.2,0.2-0.4,0.3-0.6,0.4c-0.9,0.7-1.8,1.3-2.7,2c-2.8,2.2-5.3,4.8-7.1,7.9c-1.9,3.2-3.9,6.4-5.9,9.5
	c-1,1.5-2,3.1-3,4.6c-0.9,1.2-1.8,2.4-2.7,3.6c-0.3,0-0.5-0.1-0.7-0.1c-1.2-0.3-2.3,0-3.3,0.6c-2.4,1.4-3.7,3.6-4,6.4
	c-0.2,2.6,1.8,4.4,4.3,3.9c3.1-0.6,5.6-3.3,6-6.4c0.2-1.1-0.1-2-0.6-2.9c-0.1-0.2-0.2-0.3-0.3-0.5c1.1-1.4,2.2-2.7,3.1-4
	c2.7-4,5.4-8.1,8.1-12.1c0.9-1.4,1.9-2.8,3-4c5-5.5,11-9.5,18.3-11.1c0.1,0,0.3,0,0.5,0c-0.8,0.8-1.5,1.6-2.1,2.4
	c-2.6,3.3-5.1,6.6-7.6,10c-3.2,4.3-5.9,8.9-8,13.9c-1.8,4.2-3.5,8.4-5.4,12.6c-2,4.3-3.3,8.9-5.2,13.2c-1,2.3-1.8,4.8-2.6,7.2
	c-0.2,0.5-0.5,0.9-0.9,1.2c-1,0.6-2.1,1-3.3,1.2c-2.2,0.3-4.4,0.5-6.6,0.7c-1.4,0.2-2.8,0.3-4.2,0.5c-1.4,0.2-2.8,0.5-4.3,0.7
	c-0.3,0-0.6,0.1-0.8-0.1c-1-0.7-2.1-0.8-3.2-0.8c-1.4,0-2.8,0.4-3.9,1.4c-1.7,1.4-1.6,3.8,0.3,5c1.1,0.7,2.2,1,3.5,0.9
	c2.3-0.3,4.5-1.8,4.6-4.1c0,0,0.1-0.1,0.1-0.2c0.1,0,0.2,0,0.3,0c3.5-0.5,7.1-0.5,10.6-0.7c2-0.1,3.9-0.2,5.8-1c0.1,0,0.2,0,0.2,0
	c-4.1,10.2-10.4,18.9-18.2,26.7c-0.9-0.3-1.9-0.2-2.8,0.2c-2,1-3.4,2.5-4,4.7c-0.5,1.9,0.8,3.8,2.7,4.2c1.1,0.2,2.2,0,3.1-0.7
	c1.4-0.9,2.3-2.2,2.7-3.8c0.3-1.2,0-2.3-0.3-3.4c2.2-2.3,4.5-4.5,6.7-6.8c1-1.1,1.9-2.3,2.9-3.5c0.1-0.1,0.2-0.2,0.3-0.3
	c0,0,0.1,0,0.1,0c0,0,0,0,0.1,0.1c0,0.1,0,0.2,0,0.3c-0.4,2.6-0.9,5.1-1.3,7.7c-0.5,2.9-0.8,5.8-1.3,8.7c-0.9,5.1-2.2,10.2-2.7,15.4
	c-0.3,2.9-0.5,5.9-0.8,8.8c0,0.4-0.1,0.8-0.3,1.2c-1,2.2-2.4,4.1-4.2,5.8c-0.8,0.7-1.6,1.5-2.3,2.2c-1.3,1.3-1.5,2.8-0.7,4.4
	c0.2,0.5,0.5,1,0.7,1.5c0.4,0.8,0.8,1.6,1.3,2.4c2,3.5,2.5,7.3,1.9,11.2c-0.3,2.1-0.7,4.1-1,6.2c-0.3,1.9,0.4,3.1,2.2,4
	c0.8,0.4,1.7,0.8,2.5,1.1c3.5,1.6,6.5,3.8,8.8,7c1,1.5,2.1,2.9,3.1,4.4c0.2,0.3,0.4,0.6,0.6,0.8c0.4,0.4,0.8,0.5,1.4,0.3
	c0.5-0.2,0.8-0.6,0.8-1.2c0-0.3-0.1-0.6-0.1-0.9c-0.1-0.7-0.2-1.3-0.3-2c-0.3-3.7,0.4-7.3,1.8-10.8c1-2.4,2.2-4.6,3.3-7
	c0.3-0.6,0.6-1.2,0.8-1.8c0.3-0.9-0.1-1.8-1-2.2c-0.4-0.2-0.8-0.3-1.1-0.4c-1.7-0.6-3-1.8-3.7-3.4c-0.7-1.7-1.1-3.5-1.2-5.3
	c-0.1-2.8,0.1-5.5,0.5-8.3c0-0.4,0.1-0.8,0.1-1.2c-0.1-1.3-0.7-2.1-1.9-2.5c-0.6-0.2-1.2-0.3-1.8-0.4c-2.2-0.4-4.4-0.9-6.1-2.4
	c-0.3-0.2-0.6-0.4-1-0.6c-0.5-0.2-0.7-0.6-0.6-1.1c0.1-1.4,0.2-2.8,0.3-4.2c0.4-4.8,1.2-9.5,2.2-14.1c1.2-5.2,2.1-10.5,2.7-15.8
	c0.3-2.7,0.8-5.5,1.4-8.2c0.9-4,2.6-7.7,4.5-11.2c0,0,0.1,0,0.2,0c0,0.3,0,0.6-0.1,1c-0.5,4-0.7,8-0.8,12c-0.1,5,0,10,0.5,14.9
	c0.6,5.2,1.7,10.3,3,15.4c2.4,9,5.8,17.6,9.4,26.1c0.2,0.4,0.3,0.8,0.4,1.2c0.5,2.3,0.9,4.7,1.4,7c0.8,3.4,1.8,6.8,2.4,10.3
	c0.7,4.4,0.7,8.7-0.6,13c-1.2,4.3-2.6,8.6-4,12.8c-0.1,0.5-0.3,0.9-0.4,1.3c-0.7,0.2-1.3,0.2-1.8,0.5c-2.2,0.9-3.7,3.5-3.5,5.9
	c0.1,1.4,0.9,2.4,2.3,2.9c1,0.3,1.9,0.2,2.8-0.4c2-1.2,3.2-4.5,2.3-6.7c-0.2-0.4-0.2-0.7,0-1.1c1.2-2.8,2.4-5.6,3.6-8.5
	c0.1-0.1,0.1-0.2,0.3-0.5c0.1,0.3,0.1,0.4,0.2,0.5c0.6,2.6,1.2,5.3,2,7.8c1.4,4.5,2.7,9.1,3.7,13.7c0.3,1.4,0.6,2.7,1,4.1
	c-1.2,0.5-1.8,1.4-2.1,2.6c-0.7,2.6-0.1,4.9,1.5,7c0.8,1.1,1.9,1.5,3.2,1.2c1.3-0.3,2.1-1.1,2.4-2.3c0.5-1.9,0.5-3.8-0.2-5.6
	c-0.4-1.1-1.1-2-2.3-2.4c-0.6-0.2-0.9-0.7-1-1.3c-0.6-3.1-1.1-6.2-1.9-9.3c-0.9-3.7-1.9-7.3-2.9-10.9c-0.1-0.4-0.2-0.8-0.3-1.2
	c0.5,0.5,0.8,1,1.1,1.6c1.6,2.6,3.6,4.9,5.7,7.2c3.9,4.3,7.9,8.5,11.8,12.7c0.2,0.2,0.4,0.5,0.6,0.7c-1,1-1.3,2.1-0.8,3.3
	c1.1,2.6,2.8,4.5,5.7,5.1c1,0.2,2,0.2,3-0.3c2-0.9,3-3.1,2.1-5.2c-1-2.4-2.9-3.8-5.4-4.3c-0.9-0.2-1.8-0.1-2.7,0.4
	c-0.1,0.1-0.3,0.1-0.5,0.2c-0.2-0.2-0.4-0.5-0.6-0.7c-4.6-5.1-8.7-10.6-13.1-15.8c-1-1.2-1.9-2.4-2.8-3.7c-2-2.9-3.5-6.1-4.2-9.6
	c-0.4-2.4-0.7-4.7-0.5-7.2c0.2-2.7-0.1-5.4-0.5-8.1c-0.3-2.2-0.7-4.3-1.5-6.4c-0.1-0.2-0.1-0.3-0.1-0.5c0.1,0,0.2,0,0.2,0.1
	c0.1,0.2,0.3,0.4,0.4,0.7c2.5,4.2,5.3,8.2,8.4,11.9c3.3,3.9,6.7,7.8,10.1,11.6c3.2,3.6,6.5,7,10.1,10.2c3.9,3.5,8.2,6.6,12.6,9.6
	c0.8,0.5,1.5,1.2,2,2c1.5,2.2,2.4,4.5,2.1,7.3c-0.3,2.7-1.2,4.9-3.1,6.8c-0.9,0.9-1.8,1.7-2.7,2.6c-1.6,1.5-1.7,2.3-0.6,4.2
	c0.3,0.4,0.5,0.8,0.7,1.3c0.5,1.1,0.7,2.2,0.4,3.4c-0.3,1.3-0.8,2.5-1.4,3.7c-0.3,0.6-0.6,1.1-0.8,1.7c-0.6,1.5-0.3,2.5,1,3.3
	c0.3,0.2,0.7,0.4,1.1,0.6c2.6,1.2,4.6,3,5.7,5.7c0.2,0.5,0.5,1,0.8,1.4c0.6,0.8,1.6,0.7,2.2-0.1c0.1-0.2,0.2-0.5,0.3-0.7
	c0.7-1.9,1.9-3.5,3.3-4.8c1.6-1.4,3.2-2.7,4.8-4.1c0.2-0.2,0.5-0.4,0.7-0.6c0.6-0.7,0.5-1.5-0.2-2.1c-0.2-0.1-0.3-0.2-0.5-0.3
	c-0.9-0.6-1.5-1.4-1.8-2.4c-0.3-1-0.3-2-0.1-2.9c0.3-1.3,0.7-2.6,1.1-3.9c0.3-1,0.7-2,1-3c0.4-1.4-0.2-2.4-1.6-2.7
	c-0.3-0.1-0.5-0.1-0.8-0.2c-0.6-0.2-1.3-0.4-1.9-0.8c-1.8-1.1-3-2.7-4.1-4.5c-0.1-0.2-0.2-0.5-0.2-0.7c-0.3-1.9-0.7-3.7-1.3-5.5
	c-0.1-0.2-0.1-0.4-0.2-0.7c0.2,0.1,0.4,0.2,0.5,0.2c4.2,2.4,8.5,4.3,12.9,6.1c0.4,0.2,0.8,0.5,1.1,0.8c1.9,2,3.6,4.1,4.9,6.5
	c1.7,3.2,3.3,6.5,5,9.8c0,0,0,0.1,0,0.2c-1.6,1.1-2.1,2.7-1.8,4.6c0.2,1.2,0.7,2.3,1.3,3.3c0.9,1.3,2.1,2,3.7,1.7
	c1.6-0.3,2.6-1.3,3-2.8c0.6-2.1-0.5-5-2.3-6.2c-0.2-0.1-0.4-0.3-0.6-0.3c-0.7-0.1-1-0.6-1.2-1.2c-0.1-0.3-0.3-0.6-0.4-1
	c-1.3-2.8-2.5-5.6-3.8-8.5c-0.1-0.1-0.1-0.3-0.2-0.5c0.1,0,0.2,0,0.2,0c0.1,0.1,0.3,0.2,0.4,0.3c2,1.5,4.2,2.7,6.7,3.5
	c2.4,0.8,4.9,1.4,7.3,2.1c4.1,1.1,8.3,2,12.3,3.2c5.9,1.6,11.6,4,16.8,7.2c0.6,0.4,1.3,0.7,2,1.1c0.2,0.1,0.4,0.2,0.5,0.4
	c-0.6,2.2,0,3.7,2,4.8c1,0.6,2.1,0.9,3.2,1.1c1.2,0.2,2.4,0.1,3.6-0.4c2.4-0.9,2.8-3.6,1-5.3c-0.8-0.8-1.8-1.3-2.8-1.4
	c-1.4-0.2-2.8-0.2-4.1-0.4c-0.1,0-0.3,0-0.4,0c-0.5,0.2-0.9,0-1.3-0.2c-2.4-1.4-4.9-2.9-7.3-4.3c-5-2.7-10.3-4.5-15.8-5.9
	c-4.3-1.2-8.7-2.2-13-3.3c-3.8-1-7.3-2.6-10.4-5c-0.2-0.2-0.4-0.4-0.7-0.6c0.3,0,0.6,0,0.8,0.1c2.3,0.6,4.6,1.3,7,1.9
	c4.3,1.1,8.6,1.7,13,2.3c5.8,0.9,11.7,1.4,17.5,1.6c5.1,0.2,10.2,0.3,15.3,0.5c6.5,0.2,12.8-0.7,19.1-2.2c1.2-0.3,2.3-0.7,3.5-0.8
	c2-0.1,3.9,0.1,5.8,1c0.5,0.2,0.9,0.5,1.1,1c0.8,1.4,1.1,2.9,0.9,4.5c-0.2,1.5-0.5,3-0.7,4.4c-0.2,1.3,0.6,2.3,1.9,2.3
	c0.4,0,0.8,0,1.2-0.1c2.1-0.3,4,0.1,5.7,1.6c0.8,0.7,1.5,1.5,2.1,2.3c0.8,1,1.4,2,2.1,3.1c0.9,1.2,1.8,1.5,3.2,0.8
	c0.6-0.3,1.2-0.6,1.9-0.9c2.2-1,4.6-1.5,7-1.1c1,0.2,2,0.5,2.9,0.8c0.8,0.2,1.5,0.5,2.3,0.8c0.7,0.2,1.2,0,1.5-0.5
	c0.3-0.5,0.2-1-0.3-1.5c-0.4-0.4-0.7-0.7-1.1-1.1c-2-1.9-3.3-4.2-4.1-6.9c-0.5-1.6-0.7-3.3-0.9-4.9c-0.1-1.1-0.1-2.2-0.3-3.3
	c-0.2-1.2-1.3-1.8-2.5-1.4c-0.4,0.1-0.7,0.3-1,0.5c-0.3,0.2-0.6,0.4-1,0.6c-2.4,1.3-4.7,0.9-6.6-1.1c-0.5-0.5-0.9-1-1.3-1.5
	c-0.2-0.3-0.4-0.6-0.6-0.8c-0.7-0.8-1.6-1-2.6-0.6c-0.3,0.2-0.7,0.3-1,0.5c-1.9,0.9-3.8,1.6-6,1.6c-0.5,0-1-0.1-1.4-0.4
	c-0.9-0.5-1.8-0.9-2.6-1.3c-0.2-0.1-0.3-0.2-0.6-0.3c0.3-0.1,0.5-0.2,0.7-0.3c1.8-0.8,3.7-1.6,5.5-2.3c0.9-0.4,1.9-0.7,2.8-1
	c3.2-1.1,6.3-2.2,9.5-3.3c0.6-0.2,1.2-0.3,1.8-0.4c1.4-0.2,2.9-0.3,4.3-0.4c3.3-0.3,6.5,0,9.6,1c2.4,0.8,4.6,2,6.8,3.3
	c3.3,2,6.7,4.1,10,6.1c0.2,0.1,0.4,0.3,0.5,0.4c-0.4,2.1,0.8,3.6,2.1,4.3c0.3,0.2,0.7,0.3,1.1,0.4c1.6,0.5,3.1,0.2,4.2-1.2
	c1-1.2,1.1-2.6,0-3.7c-1.4-1.5-3.7-2-5.6-1.2c-0.1,0.1-0.3,0.1-0.4,0.1c-2.1-1.5-4.2-2.9-6.3-4.3c-1.5-1.1-3.1-2.2-4.7-3.2
	c-3.7-2.4-7.8-3.9-12.2-4.3c-0.7-0.1-1.5-0.1-2.2-0.2c0.1-0.2,0.3-0.3,0.5-0.3c1.5-0.5,3-1,4.4-1.5c5.8-1.8,11.6-3.1,17.7-3.1
	c3.2,0,6.4,0.5,9.5,1.3c0.4,0.1,0.6,0.3,0.8,0.6c1.1,1.7,1.9,3.5,2.5,5.4c0.2,0.8,0.4,1.6,0.7,2.3c0.6,1.5,1.5,2,3,1.8
	c0.6-0.1,1.1-0.2,1.7-0.3c1.5-0.2,2.9-0.4,4.4-0.2c2.2,0.3,4.1,1.3,5.8,2.7c0.6,0.5,1.1,1,1.6,1.5c0.9,0.8,1.7,1,2.7,0.3
	c0.3-0.2,0.6-0.4,0.9-0.7c0.9-0.7,1.7-1.5,2.5-2.2c1.5-1.5,3.3-2.5,5.3-3.2c1.3-0.4,2.5-0.8,3.8-1.2c0.6-0.2,1.3-0.4,1.5-1.2
	c0.1-0.7-0.4-1.2-0.9-1.6c-0.7-0.5-1.4-1-2-1.5c-1.3-1.1-2.7-2.2-4-3.4c-0.9-0.8-1.5-1.9-1.6-3.2c-0.1-0.6-0.2-1.2-0.3-1.7
	c-0.3-0.9-0.9-1.3-1.8-1.4c-0.5,0-1,0-1.6,0c-2.6,0.1-5.1-0.3-7.6-1.1c-1.3-0.4-2.5-1-3.4-2c-0.2-0.2-0.3-0.3-0.5-0.4
	c-0.8-0.5-1.6-0.6-2.4,0c-0.3,0.2-0.6,0.5-0.9,0.8c-0.8,0.7-1.5,1.5-2.3,2.2c-1.7,1.5-3.5,2.8-5.8,3.4c-0.4,0.1-0.9,0.2-1.4,0.2
	c-1.9-0.1-3.8-0.2-5.7-0.2c-0.2,0-0.4,0-0.7-0.1c0.2-0.2,0.3-0.2,0.4-0.3c1.7-1,3.1-2.3,4.5-3.7c3.4-3.5,7.1-6.6,11-9.6
	c1-0.7,2.1-1.3,3.1-1.9c0.5-0.3,1-0.4,1.5-0.3c2.1,0.3,4.2,0.4,6.3,0.8c1.7,0.3,3.3,0.9,5,1.3c1.6,0.4,2.3-0.1,2.8-1.6
	c0.6-1.5,1.2-3.1,1.9-4.6c1.6-3.5,4-6.1,7.6-7.7c0.5-0.2,1-0.5,1.5-0.8c0.3-0.2,0.7-0.4,0.9-0.6c0.7-0.6,1.1-1.4,0.8-2.4
	c-0.1-0.4-0.3-0.9-0.5-1.3c-0.6-1.5-1.2-2.9-1.7-4.4c-0.7-1.9-0.7-3.9-0.1-5.9c0.5-1.8,1.3-3.5,2.3-5.1c0.2-0.3,0.4-0.6,0.5-0.9
	c0.2-0.5,0.2-1-0.2-1.3c-0.3-0.3-0.8-0.3-1.3-0.1c-0.2,0.1-0.4,0.3-0.7,0.4c-1.4,0.9-2.8,1.8-4.2,2.6c-1.6,0.9-3.3,1.3-5.1,1.2
	c-1,0-1.9-0.1-2.9-0.2c-0.9-0.1-1.6,0.3-2.1,1c-0.2,0.3-0.5,0.7-0.7,1c-0.9,1.4-1.7,2.8-2.6,4.2c-1,1.7-2.3,3.1-3.7,4.5
	c-1.2,1.1-2.6,1.7-4.2,2c-0.4,0.1-0.9,0.1-1.3,0.2c-1.6,0.2-2.3,0.9-2.4,2.4c-0.1,1.1-0.2,2.2-0.2,3.4c-0.1,1.4-0.2,2.8-0.4,4.2
	c-0.1,0.9-0.3,1.9-0.7,2.7c-1.8,3.6-4,7-6.9,9.9c-2.7,2.8-5.5,5.5-8.3,8.2c-1,1-2.1,1.8-3.4,2.3c-0.3,0.1-0.6,0.2-0.9,0.3
	c-4.5,0.4-8.9,1.1-13.2,2.2c-5.5,1.4-10.7,3.2-15.9,5.4c-0.3,0.1-0.7,0.3-1,0.4c0.3-0.4,0.7-0.6,1-0.9c8.3-5.4,16-11.5,22.7-18.7
	c2.9-3.1,5.8-6.3,8.7-9.4c3.1-3.4,6.1-7,8.5-11c1.7-2.9,3.4-5.8,5-8.7c3.2-5.8,6.1-11.8,8.6-17.9c0.8-1.9,2-3.5,3.4-5
	c0.2-0.2,0.4-0.4,0.7-0.5c0.5-0.2,1.1-0.5,1.7-0.6c1-0.1,2-0.1,3,0c3.3,0.1,6.6,0.9,9.9,1.4c0.3,0,0.4,0.2,0.6,0.4
	c0.7,1.2,1.8,1.8,3.2,1.8c0.7,0,1.5-0.1,2.2-0.2c1.2,0,2-0.7,2.8-1.4c0.3-0.2,0.4-0.6,0.6-1c0.5-1.6-0.4-3.4-2.3-3.7
	c-2.2-0.4-4.3-0.1-6,1.6c-0.3,0.3-0.5,0.4-0.9,0.3c-1.6-0.3-3.2-0.6-4.9-0.9c-2.8-0.5-5.5-1-8.4-0.8c-0.1,0-0.2,0-0.3,0
	c0-0.1,0-0.2,0-0.2c0.1-0.2,0.3-0.4,0.4-0.5c1.9-2.1,4-3.8,6.5-5.2c2.6-1.5,5.3-3,8-4.5c0,0,0.1,0,0.2,0c0.6,0.2,1.2,0.5,1.8,0.5
	c1.6-0.1,3-0.7,4.1-1.8c0.4-0.4,0.7-0.9,0.9-1.5c0.6-1.6-0.4-3.2-2.1-3.3c-0.4,0-0.8,0-1.1,0c-2.1,0.5-3.6,1.6-4.4,3.6
	c-0.2,0.5-0.5,0.8-1,1.1c-2.4,1.2-4.7,2.3-7,3.6c-2.9,1.6-5.6,3.5-7.9,6.1c-0.1,0.1-0.2,0.1-0.4,0.3c0.3-1.1,0.5-2.1,0.9-3
	c2-5,4.1-10,6.2-15c2.4-5.8,4.4-11.8,5-18.1c0.1-1.1,0.5-2,1.3-2.8c0.5-0.6,1.1-0.9,1.9-0.9c1.5-0.1,3.1,0.1,4.5,0.5
	c0.9,0.3,1.8,0.6,2.7,0.9c1.4,0.5,2.1,0.2,2.9-1.1c0.3-0.5,0.5-1,0.8-1.5c0.8-1.5,1.9-2.7,3.4-3.5c0.2-0.1,0.4-0.2,0.6-0.4
	c0.7-0.5,1-1.2,0.7-2c-0.1-0.4-0.3-0.8-0.4-1.2c-0.5-1.3-0.2-2.6,0.4-3.8C-182.6,1007.2-182.4,1006.9-182.3,1006.6z"/>
<path class="st1" d="M-394.8,1131.1c-3.1-2.1-6.3-4.2-9.4-6.3c-1.2-0.8-2.4-1.8-3.5-2.7c-0.4-0.3-0.5-0.6-0.6-1.1
	c-0.1-5.6-0.2-11.2-0.2-16.8c0-4.2,0.2-8.4,0.5-12.6c0.1-1.3,0.2-2.6,0.3-3.9c0-0.4,0.2-0.7,0.6-0.9c3.5-1.7,6.8-3.9,9.8-6.4
	c0.1-0.1,0.2-0.2,0.5-0.4c-0.9,17.3-0.1,34.4,2.9,51.6C-394.3,1131.4-394.6,1131.3-394.8,1131.1z"/>
<path class="st1" d="M-212.2,1023.7c-0.5,7.5-1.6,14.9-2.8,22.3c-0.6,3.6-1.3,7.2-2,10.8c-0.1,0.7-0.4,1.4-0.7,2.1
	c-0.2-0.9-0.3-1.7-0.5-2.6c-0.7-3.5-1.9-6.9-3.3-10.1c-2-4.7-3.5-9.6-4.6-14.5c0-0.2,0-0.3-0.1-0.5c0.2-0.1,0.5-0.2,0.6-0.4
	c0.5-0.4,1-0.8,1.3-1.3c1.4-2.4,0.8-6-1.4-7.7c-1.9-1.5-4.6-1.1-5.7,1.1c-0.3,0.6-0.5,1.4-0.6,2.1c-0.2,1.9,0.5,3.6,1.6,5.1
	c0.5,0.7,1.3,1.1,2.2,1.1c0.1,0.2,0.1,0.3,0.1,0.5c0.8,4.9,2.2,9.6,4.2,14.2c1.3,3,2.6,6,3.4,9.2c0.7,2.6,1.1,5.3,1.1,8.1
	c0,1.3-0.2,2.5-0.6,3.7c-1.8,5.1-4.1,10.1-6.7,14.9c-1.7,3.3-3.6,6.5-5.4,9.7c-0.1,0.1-0.2,0.3-0.4,0.5c0-0.3-0.1-0.4-0.1-0.6
	c-0.2-3.3-0.9-6.5-2.3-9.5c-1.1-2.3-2.3-4.5-3.5-6.8c-0.8-1.6-1.6-3.3-2.4-4.9c-0.2-0.5-0.3-1-0.3-1.5c0-0.6,0.2-0.9,0.9-1
	c0.8-0.1,1.6,0,2.3,0.6c0.1,0.1,0.3,0.2,0.4,0.3c0.6,0.2,1.1,0.1,1.2-0.5c0.1-0.4,0.1-1-0.1-1.3c-0.3-0.6-0.6-1.2-1.1-1.6
	c-2.7-2.5-7.1-2.3-9.1,1.4c-1,1.8-1.1,3.8-0.6,5.8c0.4,1.9,1.2,3.7,2.1,5.4c1.1,2,2.2,4,3.3,6c1.3,2.3,2.3,4.7,2.8,7.3
	c0.3,1.8,0.1,3.5-0.6,5.1c-0.8,2-2.9,2.8-4.9,2.2c-0.4-0.1-0.8-0.3-1.2-0.5c-1.2-0.4-2.2,0.5-2,1.8c0.1,0.6,0.4,1.2,1,1.6
	c1.3,0.9,2.6,1.7,4.2,1.8c0.7,0.1,1.4-0.1,2.2-0.1c-0.1,0.1-0.1,0.3-0.2,0.4c-4.9,5.4-9.6,11-15,15.9c-9.3,8.4-19.4,15.6-30.7,21.1
	c-5.1,2.4-10.4,4.5-15.9,5.7c-4.6,1-9.2,1.6-13.9,1.7c-1.9,0-3.8,0-5.6,0c-0.2,0-0.3,0-0.6-0.1c0.3-0.2,0.4-0.3,0.5-0.4
	c0.5-0.3,1.1-0.6,1.5-1c2.5-1.8,5.3-2.4,8.3-2.3c0.5,0,1,0.1,1.5,0.1c0.8,0.1,1.4-0.2,1.9-0.8c0.5-0.7,1.1-1.4,1.6-2
	c1.5-1.9,3.4-3.2,5.9-3.5c0.2,0,0.3-0.1,0.5-0.1c1.1-0.3,1.5-0.9,1.4-2.1c-0.1-1.4-0.2-2.7-0.3-4.1c0-1.1,0.2-2.1,0.6-3.1
	c0.3-0.7,0.6-1.4,1.2-2c0.1-0.1,0.2-0.2,0.3-0.3c0.3-0.4,0.3-0.8,0-1.2c-0.3-0.4-0.7-0.5-1.2-0.4c-0.2,0.1-0.5,0.2-0.7,0.3
	c-2.3,1.3-4.7,2.1-7.3,2.2c-0.9,0-1.9-0.2-2.8-0.4c-1.3-0.2-2,0.1-2.7,1.2c-0.4,0.7-0.8,1.4-1.1,2.1c-1.3,2.6-3.5,3.8-6.4,3.8
	c-0.2,0-0.3,0-0.5,0c-1.5,0-2.2,0.7-2.3,2.1c-0.1,1.1-0.2,2.2-0.4,3.4c-0.3,2.7-1.4,5.1-3.4,7c-0.3,0.3-0.8,0.5-1.2,0.7
	c-1.2,0.4-2.4,0.5-3.7,0.4c-3.2-0.2-6.4-0.4-9.6-0.5c-0.2,0-0.4,0-0.8-0.1c0.2-0.9,0.3-1.7,0.6-2.6c1.1-4,3-7.5,5.5-10.7
	c1-1.3,2-2.5,3.1-3.6c1.6-1.8,3.4-3.4,5.5-4.6c2.4-1.5,4.8-3,7.5-3.8c3.4-1.1,6.9-1.7,10.5-1.6c3.8,0.1,7.7,0.1,11.5,0.4
	c4.6,0.3,9.1,0.9,13.6,1.3c1.7,0.2,3.3,0.3,5,0.4c1,0.1,2.1,0.1,3.1,0.2c5.1,0.5,9.5-1,13.6-3.9c3.3-2.3,5.6-5.4,7.2-9
	c1.4-3.1,2.3-6.4,2.7-9.7c0.8-5.7,1.5-11.5,2.2-17.2c0.4-3.2,0.6-6.5,0.5-9.7c0-1-0.1-2-0.3-2.9c-0.1-0.4-0.3-0.9-0.6-1.2
	c-0.8-0.9-2.1-0.9-2.8,0.1c-0.2,0.3-0.4,0.7-0.6,1.1c-0.9,2.2-1.6,4.5-2.1,6.8c-0.1,0.6-0.3,1.2-0.5,1.8c-1.5,3.8-3,7.5-4.5,11.3
	c-0.7,1.7-1.7,3.3-2.9,4.8c-0.8,1-1.5,1.5-2.4,1.8c-0.3-0.4-0.2-0.9-0.2-1.3c0.1-2.1,0.1-4.1,0.3-6.2c0.1-2.3,0.3-4.5,0.4-6.8
	c0-1.2-0.2-2.4-0.3-3.6c-0.1-0.4-0.2-0.8-0.4-1.2c-0.7-1.5-2.3-1.8-3.5-0.6c-0.5,0.5-0.9,1-1.2,1.6c-0.7,1.3-1.1,2.8-1.5,4.3
	c-0.8,3.6-1.3,7.2-1.1,10.9c0,0.3,0,0.6-0.1,0.9c-0.7,1.7-1.5,3.3-2.6,4.7c-0.2,0.2-0.4,0.4-0.7,0.7c-0.1-0.3-0.1-0.5-0.1-0.7
	c-0.1-2.1-0.3-4.1-0.2-6.2c0.1-3.4,0.4-6.8,0.5-10.1c0.1-2.7,0.2-5.5,0.2-8.2c0-1.3-0.3-2.6-0.5-3.9c-0.1-0.5-0.3-1.1-0.6-1.5
	c-0.7-1.1-2-1.2-2.8-0.2c-0.4,0.4-0.6,0.9-0.9,1.4c-0.1,0.2-0.2,0.5-0.4,0.7c-1.2-0.4-2.4-0.6-3.7-0.3c-1,0.2-1.9,0.6-2.7,1.2
	c-1.8,1.2-3.3,2.7-4.4,4.6c-1.9,3.2-3.1,6.7-3.8,10.4c-0.4,2.3-0.6,4.5-0.2,6.8c0.1,0.8,0.4,1.6,0.6,2.4c0.1,0.3,0.1,0.6,0,0.8
	c-0.9,1.6-1.8,3.1-3,4.4c0,0-0.1,0.1-0.2,0.1c0-0.2-0.1-0.5-0.1-0.7c0.1-2.2,0.2-4.3,0.4-6.5c0.2-2.4,0.4-4.7,0.6-7.1
	c0.5-3.9,1-7.8,1.5-11.7c0.5-4,1.6-10,1.9-10.4c0.1-0.1,11.9-5.5,11.1-29.8c0-0.7-0.1-1.5-0.3-2.2c-0.5-1.8-2-2.6-3.8-2.2
	c-0.9,0.2-1.7,0.7-2.3,1.3c-1.3,1.1-2.3,2.5-3.2,3.9c-1.6,2.7-3,5.5-4.2,8.5c-1.8,4.7-3.3,9.5-4.4,14.4
	c-17.5-5.2-33.9-17.2-40.6,3.6c-0.4,1.3-0.8,2.7-0.6,4.1c0.2,1.8,1,3.2,2.7,3.9c1.8,0.7,3.2,0,3.7-1.9c0.5-2,1-3.9,1.6-5.9
	c5-17.7,13-4.4,32.2,1c-0.6,3.3-1.3,6.6-1.9,9.9c0,0.2-0.1,0.4-0.2,0.7c-0.2-0.1-0.4-0.2-0.6-0.4c-2.7-2.1-5.6-2.2-8.6-0.7
	c-2.2,1.1-3.8,2.8-5.2,4.8c-1.9,2.7-3.1,5.7-4.1,8.9c-0.1,0.3-0.3,0.7-0.5,1c-2.5,2.8-4.9,5.7-7.8,8.2c-1.2,1.1-2.5,2.1-3.8,3
	c-0.7,0.5-1.6,0.9-2.5,1.2c-0.6,0.3-0.8,0.2-1.1-0.4c-0.5-1-0.6-2.1-0.7-3.2c-0.3-2.5-0.1-4.9,0.1-7.4c0.4-4.3,0.8-8.5,1.2-12.8
	c0.1-0.6,0-1.2-0.1-1.7c-0.1-0.4-0.2-0.9-0.4-1.3c-0.8-1.6-2.6-1.9-3.9-0.8c-0.5,0.5-1,1.1-1.3,1.8c-0.9,1.6-1.3,3.3-1.7,5.1
	c-0.6,2.6-1.1,5.2-1.3,7.8c0,0.3-0.1,0.5-0.1,0.8c-0.8,2.3-1.6,4.7-3,6.7c-0.6,0.9-1.4,1.8-2.1,2.6c-0.3,0.3-0.6,0.5-1,0.7
	c-0.5-0.4-0.6-0.9-0.7-1.3c-0.4-1.8-0.8-3.7-1.1-5.5c-0.5-4.4-0.6-8.9-0.5-13.3c0-0.6,0.2-1.1,0.5-1.6c2.3-3.9,4.4-8,6-12.3
	c1.4-3.8,2.3-7.8,2.8-11.9c0.3-2.4,0.3-4.8-0.4-7.1c-0.4-1.1-0.9-2.2-1.6-3.2c-0.7-0.9-1.5-1.5-2.6-1.8c-1.3-0.4-2.6-0.1-3.7,0.6
	c-1.1,0.7-2,1.7-2.7,2.8c-1,1.6-1.8,3.4-2.4,5.3c-1.5,4.4-2.4,8.9-3,13.5c-0.6,4.3-0.8,8.6-0.9,13c0,1.9-0.1,3.7-0.1,5.6
	c0,0.8,0,1.5,0.1,2.3c0.1,0.6-0.1,1.1-0.6,1.5c-0.4,0.3-0.7,0.6-1.1,1c-0.1-1.2-0.3-2.1-0.4-3.1c-0.3-2.7-1-5.3-2.1-7.9
	c-0.8-1.7-1.8-3.2-3.2-4.4c-1.5-1.3-3.2-2-5.1-2c-0.9,0-1.8,0.2-2.6,0.6c-1.1,0.5-2.2,1.1-3,2c-2.8,3-4.4,6.4-4.2,10.6
	c0.1,2,0.6,3.8,1.7,5.5c0.2,0.4,0.3,0.7,0.2,1.2c-0.8,3.3-1.1,6.6-0.9,9.9c0.1,2.4,0.5,4.7,1.5,6.9c0.7,1.5,1.6,2.8,2.8,3.9
	c0.8,0.8,1.8,1.5,2.9,1.9c1.5,0.5,2.9,0.4,4.3-0.3c1.2-0.6,2.2-1.5,3-2.5c2-2.5,3.2-5.3,4-8.3c0.7-2.6,0.9-5.2,1.1-7.9
	c0-0.8,0.1-1.7,0.1-2.5c0-0.2,0.1-0.4,0.2-0.5c0.5-0.5,1.1-0.9,1.7-1.4c0.2,1.1,0.3,2.1,0.4,3.1c0.3,2.2,0.8,4.4,1.6,6.6
	c0.5,1.3,1.1,2.5,2,3.6c2.6,3.1,6.7,3.2,9.3,0.1c0.8-0.9,1.4-2,2.1-3c0.2-0.2,0.3-0.5,0.6-0.9c0.1,0.5,0.2,0.7,0.2,1
	c0.2,1.5,0.6,2.9,1.2,4.2c0.8,1.6,1.9,2.8,3.5,3.7c1.8,0.9,3.6,1,5.4,0.1c0.8-0.4,1.5-0.9,2.2-1.4c1.7-1.4,3.2-3,4.6-4.7
	c1.6-2,3.1-3.9,4.7-5.9c0.2-0.3,0.4-0.5,0.6-0.8c0.1,0,0.1,0,0.2,0.1c0,0.4-0.1,0.8-0.1,1.2c-0.3,3.5-0.1,7.1,1,10.5
	c0.6,1.7,1.4,3.2,2.7,4.5c2,1.9,4.7,2.2,7.1,0.7c1.1-0.7,2-1.6,2.8-2.6c1.4-1.6,2.4-3.4,3.2-5.3c0.4-1,0.8-2,1.4-2.9
	c0,0.2,0.1,0.5,0.1,0.7c0.3,1.3,0.6,2.5,0.9,3.8c0.3,0.9,0.8,1.8,1.5,2.5c1.6,1.8,3.8,1.8,5.4,0c1.3-1.4,2.2-3.1,3.1-4.8
	c0.3-0.6,0.6-1.3,1-1.9c0.1-0.2,0.2-0.3,0.3-0.5c0.2,0.3,0.4,0.5,0.6,0.7c2.1,2.3,5.4,2.3,7.4-0.1c0.5-0.6,0.9-1.2,1.3-1.8
	c0.2-0.2,0.3-0.5,0.6-0.8c0.1,0.6,0.2,1,0.3,1.5c0.3,1.5,0.8,2.9,1.6,4.2c0.6,0.9,1.4,1.6,2.4,2c1.4,0.5,2.6,0.3,3.7-0.7
	c0.5-0.5,1-1.2,1.4-1.9c0.7-1.4,1.3-2.8,2-4.2c0.1-0.2,0.1-0.3,0.3-0.6c0.2,0.3,0.3,0.6,0.4,0.8c0.4,0.9,0.9,1.7,1.6,2.4
	c1.6,1.6,3.8,1.9,5.8,0.7c0.9-0.6,1.7-1.3,2.4-2.1c1.2-1.5,2.1-3.2,2.9-4.9c0.5-1.2,1-2.3,1.5-3.5c0.1-0.2,0.2-0.3,0.3-0.4
	c0,0.3,0,0.5,0,0.8c-0.5,3.8-1,7.6-1.5,11.4c-0.3,2.5-1,4.9-2.3,7.1c-3.4,5.9-8.5,8.7-15.4,8.2c-1.5-0.1-3.1-0.2-4.6-0.3
	c-3.1-0.2-6.3-0.4-9.4-0.7c-5.6-0.5-11.2-0.7-16.8-0.6c-5.2,0.2-10.2,1.4-15,3.7c-2.7,1.3-5.2,3-7.6,5c-2.6,2.1-4.9,4.4-6.9,7.1
	c-3,4-5,8.4-5.9,13.4c-0.1,0.5-0.2,0.9-0.3,1.4c0,0.1-0.1,0.3-0.2,0.5c-10.3-1-20.5-2.9-30.4-6.3c0.4-0.1,0.9-0.2,1.3-0.3
	c1.2-0.2,2.5-0.5,3.7-0.7c1.3-0.2,2.7-0.5,4-0.6c0.9-0.1,1.9-0.1,2.9-0.3c2.7-0.4,5.4,0.2,8,0.8c0.5,0.1,1.1,0.3,1.6,0.3
	c1,0.1,1.8-0.3,2.3-1.2c0.1-0.2,0.2-0.5,0.3-0.7c1-2.7,2.8-4.8,4.8-6.7c1-0.9,2-1.7,3.1-2.6c1.2-0.9,1.4-1.7,0.8-3.1
	c-0.3-0.6-0.6-1.3-0.9-1.9c-1.1-2.3-1.2-4.6-0.6-7c0.2-0.8,0.3-1.7,0.3-2.5c0-1.4-1.1-2.1-2.4-1.6c-0.4,0.1-0.7,0.3-1,0.5
	c-1.6,0.8-3.2,1.6-4.8,2.3c-2.5,1-5.1,1.4-7.7,0.9c-0.2,0-0.5-0.1-0.7-0.1c-1.3,0-2,0.6-2.2,1.8c-0.1,0.8-0.3,1.6-0.4,2.4
	c-0.2,1.2-0.7,2.4-1.4,3.4c-1.1,1.5-2.5,2.3-4.4,2.3c-0.7,0-1.3,0-2,0c-0.3,0-0.6,0-0.9,0.1c-1,0.3-1.4,1.2-1.1,2.2
	c0.2,0.6,0.4,1.2,0.7,1.8c0.4,1,0.5,2,0.4,3c0,0.6-0.3,1.1-0.8,1.6c-1.7,1.5-3.7,2.1-5.9,2.2c-2.6,0-5.2-0.1-7.8-0.5
	c-0.7-0.1-1.3-0.4-2-0.7c-0.2-0.1-0.4-0.4-0.5-0.7c-0.7-2.8-1.3-5.6-1.5-8.4c-1-11.9-1-23.8-0.7-35.6c0.1-4,0.4-8,0.7-12
	c0.2-2.3,0.5-4.7,0.7-7c0-0.4,0.2-0.8,0.4-1.2c5.5-7,9.5-14.8,12.3-23.2c1-3,1.9-6,2.3-9.1c0.3-2.4,0.5-4.9-0.1-7.3
	c-0.4-1.5-1-2.8-2.2-3.9c-1.5-1.4-3.1-1.7-5-0.9c-0.9,0.4-1.7,0.9-2.4,1.6c-1.4,1.2-2.5,2.8-3.3,4.5c-1.5,2.9-2.6,6-3.6,9.1
	c-2,6-3.5,12.2-4.5,18.4c-0.7,4.2-1.4,8.3-2,12.5c-0.2,1.1-0.2,2.2-0.4,3.4c0,0.3-0.2,0.6-0.4,0.8c-3,2.8-6.3,5.3-10,7.3
	c-0.1,0.1-0.3,0.1-0.6,0.2c0.1-1.2,0.2-2.2,0.2-3.3c0.3-4.3,0.7-8.5,0.6-12.8c0-2.5-0.3-5-1-7.5c-0.3-1.1-0.8-2.2-1.5-3.2
	c-1.7-2.4-4.3-2.9-6.7-1.3c-2.5,1.6-4,4-4.7,6.8c-0.1,0.5-0.1,1.1,0,1.7c0,0.2,0.1,0.5,0.2,0.7c0.2,0.4,0.5,0.6,1,0.6
	c0.5,0,0.7-0.4,0.8-0.8c0.4-1.5,1.3-2.6,2.4-3.6c0.4-0.4,0.9-0.6,1.6-1c0.2,0.6,0.3,1.1,0.4,1.6c0.2,1.8,0.5,3.7,0.5,5.5
	c0,3.4-0.1,6.9-0.2,10.3c-0.1,2.7-0.2,5.5-0.4,8.2c0,0.2,0,0.4,0,0.6c-1.1,0.5-2.3,0.7-3.4,0.9c-1.5,0.2-3.1,0.4-4.7,0.2
	c-0.5,0-0.9,0-1.4,0c-0.4,0-0.8,0.2-0.9,0.7c-0.1,0.4,0.1,0.8,0.6,1c1,0.4,2,0.6,3,0.6c2.2,0.2,4.3,0,6.6-0.5
	c-0.1,8.6-0.7,17-0.8,25.6c-0.3,0-0.5-0.3-0.6-0.5c-3.7-4-7.3-7.9-11-12c-3.1-3.4-6-7.1-8.6-10.9c-2.5-3.7-4.8-7.5-6.9-11.4
	c-0.1-0.2-0.2-0.4-0.3-0.5c0,0,0-0.1,0-0.2c0.1,0.1,0.3,0.1,0.4,0.2c2.1,1.5,4.5,2.3,7.1,2.7c1.7,0.3,3.4,0.5,5.2,0.5
	c0.3,0,0.7,0.1,0.9,0.2c1.4,1.1,2.9,1.2,4.5,0.9c0.4-0.1,0.9-0.2,1.3-0.3c2.1-0.6,2.7-2.2,2.6-4.1c0-0.8-0.5-1.5-1.1-2.1
	c-2.3-2.1-6.3-1.5-7.9,1.1c-0.3,0.5-0.4,1.1-0.7,1.7c-0.9-0.1-1.8-0.2-2.8-0.4c-1.2-0.2-2.4-0.4-3.6-0.6c-2.3-0.5-4.3-1.5-5.9-3.1
	c-0.9-0.9-1.8-1.8-2.6-2.8c-0.2-0.2-0.4-0.5-0.5-0.8c-1.3-3.2-2.6-6.5-3.7-9.7c0.4,0.5,0.8,1.1,1.3,1.6c1.9,2.2,4.3,3.7,7.1,4.7
	c1.5,0.6,3,0.8,4.6,0.5c2.9-0.4,5.5-1.5,7.7-3.2c2.7-2.2,4.8-4.9,6.5-7.7c2.2-3.7,4-7.5,5.5-11.4c3.2-8.6,5.4-17.4,7-26.3
	c0.7-3.8,1.3-7.5,1.9-11.3c0.1-0.4,0.2-0.7,0.6-0.9c4.2-1.9,7.9-4.4,11.5-7.1c0.2-0.2,0.4-0.3,0.7-0.5c0,0.2,0,0.3,0,0.4
	c-0.3,2.1-0.6,4.2-0.8,6.4c-0.4,3.6-0.8,7.2-1.2,10.8c-0.3,2.8-0.6,5.6-0.8,8.5c-0.4,3.6-0.7,7.3-1,10.9c-0.3,3.3-0.5,6.6-0.7,10
	c-0.1,0.8-0.1,1.6,0,2.4c0.1,0.7,0.2,1.4,0.4,2c0.2,0.7,0.9,1,1.6,1c0.7,0.1,0.9-0.5,1.1-0.9c0.6-1.5,1.3-3,1.7-4.5
	c2.1-7,3.5-14.1,4.9-21.2c0.7-3.5,1.1-7,1.6-10.5c0.7-4.9,1.2-9.8,1.9-14.6c0.4-3.1,0.8-6.2,1.3-9.3c0.1-0.4,0.2-0.8,0.5-1.1
	c5.8-6.5,10.6-13.6,14.7-21.1c4.6-8.4,8.1-17.1,9.1-26.5c0.4-3.7,0.7-7.4,0.2-11.2c-0.3-2.5-0.9-5-2.1-7.3c-0.7-1.4-1.7-2.7-3-3.7
	c-2.1-1.6-4.6-1.8-6.8-0.4c-0.9,0.5-1.8,1.2-2.5,2c-1.1,1.3-2.1,2.6-2.9,4c-2.1,3.5-3.5,7.2-4.7,11c-2.3,7.1-3.8,14.3-5.3,21.6
	c-1.1,5.6-2.2,11.2-3.2,16.7c-0.8,4.3-1.5,8.7-2.2,13c-0.4,2.2-0.7,4.5-1,6.7c-0.1,0.5-0.3,0.9-0.7,1.3c-1.1,0.9-2.2,1.8-3.3,2.6
	c-2.6,2-5.2,3.8-8.2,5.3c-0.3,0.1-0.5,0.2-0.9,0.4c0-0.4,0-0.7,0.1-0.9c0.5-4.5,1.1-9.1,1.5-13.6c0.8-8.6-0.1-17-2.3-25.3
	c-0.6-2.3-1.4-4.6-2.8-6.7c-1.3-2-3-3.7-5.2-4.9c-2.1-1.1-4.4-1.4-6.7-0.9c-2.5,0.6-4.6,1.7-6.6,3.1c-5.4,3.8-9.2,8.6-11.5,14.4
	c-1.3,3.3-2.2,6.8-1.7,10.4c0.2,1.8,0.7,3.5,1.7,5c0.7,1.1,1.6,2,2.8,2.7c1.6,0.9,3.3,1,5,0.3c1-0.4,1.9-1.1,2.6-1.8
	c3-2.9,4.9-6.3,5.7-10.2c0.3-1.4,0.3-2.8-0.3-4.1c-0.3-0.6-0.7-1.1-1.2-1.5c-0.5-0.5-1.4-0.4-1.9,0.1c-0.2,0.2-0.5,0.5-0.3,0.9
	c0.2,0.4,0.5,0.3,0.9,0.3c0.1,0,0.1,0,0.2,0.1c0.6,1,0.6,2.2,0.3,3.3c-0.8,3-2,5.7-4,8.2c-0.7,0.9-1.6,1.7-2.5,2.3
	c-1.4,1-2.7,0.9-4-0.3c-0.9-0.9-1.5-1.9-1.9-3.1c-0.7-2.1-0.8-4.3-0.3-6.5c1.5-6.7,5.1-12.4,11-16.7c1.3-1,2.7-1.7,4.3-2.1
	c0.8-0.2,1.7-0.4,2.5-0.4c1.7,0,2.8,0.9,3.7,2c1,1.2,1.7,2.5,2.2,3.9c1.7,4.5,2.4,9.2,2.7,13.9c0.3,5.2-0.2,10.4-0.8,15.5
	c-0.7,5.3-1.5,10.6-2.2,15.8c-0.1,0.7-0.1,0.7-0.9,0.9c-2.6,0.6-5.3,1-8,1c-1.8,0-3.7,0-5.5,0c-2.8,0-5.5-0.3-8.1-1
	c-0.3-0.1-0.6-0.1-0.9-0.2c-0.4,0-0.8,0-1,0.4c-0.2,0.3,0,0.6,0.2,0.9c0.4,0.3,0.8,0.6,1.2,0.8c1.3,0.6,2.7,1,4.1,1.2
	c2.8,0.4,5.7,0.5,8.6,0.5c2.5,0,4.9-0.1,7.3-0.6c0.7-0.1,1.5-0.3,2.3-0.4c0,0.2,0,0.4,0,0.5c-0.5,2.7-0.9,5.3-1.4,8
	c-1.6,8.4-3.7,16.6-6.6,24.7c-1.5,4.1-3.1,8.2-5.3,12c-1,1.8-2.3,3.5-3.8,5c-0.8,0.8-1.8,1.4-2.8,1.8c-1.3,0.6-2.5,0.5-3.7,0
	c-1.6-0.6-2.8-1.6-3.9-2.8c-4.1-4.6-6.6-9.9-7.8-15.7c-0.5-2.4-0.6-4.8,0-7.1c0.4-1.7,1.2-3.3,2.3-4.8c0.5-0.6,1.1-1,2-0.9
	c0.2,0,0.5,0,0.8,0c0.7-0.1,1.1-0.4,1.1-0.9c0.1-0.5-0.3-0.9-1-1.1c-1.6-0.4-3.1-0.1-4.4,0.9c-1.6,1.2-2.6,2.9-3.2,4.7
	c-0.5,1.5-0.8,3-1,4.5c-0.7-3.2-1.1-6.4-1.4-9.7c-0.4-4.7-0.3-9.4-0.1-14c0.3-7.1,1.2-14.1,3.1-20.9c0.1-0.2,0.1-0.4,0.2-0.7
	c0,0,0.1-0.1,0.1-0.2c0,0.2,0.1,0.3,0.1,0.4c0.1,2.8,0.2,5.6-0.2,8.4c-0.2,1.7-0.6,3.3-1.2,4.9c-0.6,1.7-0.4,3.1,0.6,4.6
	c0.5,0.8,1,1.8,1.4,2.7c0.6,1.2,0.6,2.5,0.6,3.8c0,0.3,0,0.5,0,0.8c0.1,1,0.6,1.8,1.6,2.2c0.3,0.1,0.6,0.2,0.9,0.3
	c1.7,0.4,3.1,1.2,4.5,2.2c0.5,0.4,1,0.8,1.5,1.2c0.4,0.3,0.9,0.5,1.5,0.2c0.6-0.3,0.7-0.8,0.7-1.4c0-0.4-0.1-0.9-0.2-1.3
	c-0.4-2.5,0.3-4.9,1.2-7.2c0.1-0.2,0.2-0.4,0.2-0.6c0.4-1,0.2-1.7-0.5-2.3c-0.3-0.3-0.7-0.6-1-0.9c-1.1-1-1.7-2.3-1.9-3.7
	c-0.3-1.8-0.1-3.5,0.1-5.3c0-0.5,0.1-1,0.2-1.6c0.1-1.5-0.5-2.3-2-2.6c-2.1-0.3-3.5-1.4-4.5-3.2c-0.2-0.3-0.3-0.7-0.3-1.1
	c0.1-2.2,0.2-4.5,0.4-6.7c0.1-1,0.3-2,0.4-3c0-0.3,0.1-0.6,0.2-1c0.2,0.3,0.3,0.5,0.3,0.7c1.3,3.6,3.3,6.7,6.1,9.4
	c0.4,0.4,0.8,0.7,1.1,1.1c1.8,1.8,4,3,6.5,3.7c0.3,0.1,0.6,0.2,0.9,0.3c0.6,0.2,1.1,0.5,1.4,1.1c0.8,1.3,2.1,1.8,3.6,1.7
	c0.5,0,1-0.1,1.5-0.3c1.2-0.3,2.1-0.9,2.5-2.2c0.3-1.3-0.1-2.3-1-3.2c-1.7-1.6-4.7-1.5-6.3,0.2c-0.2,0.2-0.3,0.3-0.5,0.5
	c-0.1,0-0.2,0-0.3,0c-1.8-0.5-3.6-1.2-5.1-2.4c-2.6-2.1-5-4.4-6.7-7.3c-1.7-3-2.4-6.2-2.5-9.6c0-0.2,0-0.4,0-0.6
	c0.5-1.5,0.8-3.2,1.5-4.6c2-4.2,4-8.4,6.2-12.5c1.7-3.3,3.8-6.5,6.1-9.5c2.8-3.6,5.7-7.1,8.4-10.8c2.1-2.8,4.7-5.2,7.3-7.5
	c4.9-4.3,9.8-8.5,15.2-12.2c2.3-1.6,4.6-2.9,7-4.4c0.2-0.2,0.5-0.3,0.8-0.4c0,0,0,0.1,0.1,0.1c-0.2,0.2-0.4,0.4-0.6,0.6
	c-2.3,2.1-4.3,4.4-6,7c-0.2,0.3-0.4,0.6-0.7,0.9c-1.7,1.7-3.4,3.3-5.4,4.8c-0.7,0.5-1.4,1.1-2,1.7c-0.9,0.8-1.4,1.9-1.3,3.2
	c0.1,1.4,0.2,2.8,0.3,4.2c0.2,2.2-0.2,4.4-1.1,6.4c-0.8,1.7-0.5,2.6,1,3.6c0.8,0.5,1.5,1.1,2.3,1.7c1.7,1.3,2.9,2.9,3.7,4.8
	c0.3,0.8,0.6,1.6,0.9,2.3c0.1,0.2,0.2,0.5,0.3,0.7c0.2,0.3,0.6,0.5,1,0.4c0.4-0.1,0.7-0.3,0.8-0.7c0.1-0.2,0.1-0.4,0.1-0.7
	c0.1-1.4,0.6-2.6,1.2-3.9c1.1-2.3,2.4-4.5,4.1-6.5c0.9-1.1,0.9-2-0.3-2.9c-1.9-1.4-2.6-3.6-1.6-5.9c0.6-1.4,1.4-2.8,2.1-4.2
	c0.1-0.2,0.3-0.4,0.4-0.7c0.7-1.1,0.6-2.1-0.4-2.9c-1-0.9-1.7-2-1.9-3.3c-0.1-0.4-0.1-0.9-0.1-1.3c0.3-2.3,1.1-4.5,2.8-6.2
	c2.2-2.2,4.8-4,7.5-5.4c3.4-1.8,6.9-3.4,10.3-5.2c1-0.5,2.1-1,3.1-1.5c0.3-0.2,0.7-0.3,1-0.4c5.9-1.8,11.9-3.1,18-3.8
	c3.7-0.4,7.4-0.5,11.2-0.7c2.4-0.1,4.8-0.2,7.2-0.3c0.3,0,0.6,0,1,0c-0.2,0.2-0.3,0.3-0.4,0.4c-4.3,2.7-7.6,6.5-10,11
	c-0.4,0.7-0.8,1.2-1.4,1.7c-1.9,1.5-4,2.7-6.2,3.6c-0.6,0.2-1.2,0.5-1.8,0.8c-1.3,0.7-1.7,1.7-1.2,3.1c0.1,0.3,0.2,0.6,0.4,0.9
	c1.5,2.9,1.8,5.9,1,9c-0.3,1.3-0.7,2.6-1,3.9c-0.5,2-0.2,2.9,1.4,4.1c0.6,0.4,1.2,0.9,1.7,1.3c1.9,1.4,3.2,3.3,3.8,5.5
	c0.8,2.7,1.4,5.5,1.7,8.3c0,0.3,0.1,0.7,0.2,1c0.2,0.5,0.7,0.8,1.2,0.8c0.6,0,1-0.3,1.1-0.9c0.1-0.3,0.1-0.7,0.2-1
	c0.2-5.4,2.4-9.9,6.2-13.6c1-1,2.1-1.9,3.2-2.8c0.3-0.3,0.6-0.5,0.9-0.8c0.6-0.7,0.5-1.7-0.3-2.3c-0.3-0.2-0.5-0.3-0.8-0.5
	c-2.1-0.8-3.4-3.1-3-5.6c0.3-1.8,0.8-3.5,1.6-5.1c0.4-0.9,0.9-1.8,1.3-2.8c0.2-0.5,0.4-1.1,0.4-1.7c0.1-0.9-0.4-1.6-1.1-2
	c-0.5-0.2-1-0.4-1.5-0.5c-0.8-0.3-1.5-0.5-2.3-0.8c-1.3-0.5-2.3-1.5-2.9-2.8c0-0.1,0-0.2,0.1-0.3c2.6-4.4,5.9-8.1,10.5-10.4
	c1.9-1,4-1.4,6.1-1.3c2.8,0.2,5.5,0.5,8.3,0.7c3.3,0.3,6.5,0.8,9.7,1.4c0.1,0,0.2,0,0.5,0.1c-0.4,0.2-0.6,0.3-0.9,0.4
	c-3.7,1.2-6.7,3.4-8.9,6.6c-0.7,1-1.4,1.9-2,2.7c-0.9,0-1.6,0-2.3,0.1c-1.1,0.3-2,1.1-2.6,2c-0.5,0.7-1,1.5-1.4,2.3
	c-0.3,0.7-0.5,1.4-0.3,2.2c0.3,1.4,1.6,2.3,3,2.1c2.2-0.4,3.9-1.6,4.9-3.6c0.6-1.1,0.6-2.3,0-3.5c-0.1-0.1-0.1-0.3-0.1-0.3
	c3-4.3,6.8-7.3,12-8.4c1.6-0.3,3.3-0.4,5-0.6c0.1,0,0.2,0,0.3,0c1.2-0.3,2.4,0.1,3.6,0.4c5.7,1.8,11.2,4.3,16.6,6.8
	c6.3,2.9,12.1,6.6,17.9,10.4c9,6,16.7,13.5,23.5,21.9c0.7,0.9,1.5,1.9,2.1,2.9c-0.1-0.1-0.3-0.2-0.4-0.3
	c-6.8-5.9-14.7-9.8-23.4-12.2c-2-0.5-4-0.9-6-1.4c-0.5-0.1-1-0.4-1.5-0.7c-1.9-1.2-3.5-2.8-5-4.6c-0.9-1.1-1.7-2.2-2.6-3.3
	c-0.4-0.5-0.8-1.1-1.2-1.6c-0.7-0.8-1.6-1-2.6-0.7c-0.7,0.2-1.5,0.5-2.2,0.8c-1.6,0.6-3.3,1-5.1,1.1c-2.5,0.1-4.9-0.7-7-2
	c-1-0.7-1.9-1.5-2.9-2.2c-0.2-0.2-0.4-0.4-0.7-0.6c-0.9-0.6-1.6-0.5-2.4,0.3c-1,1-1.9,2-2.9,2.9c-3.6,3.3-7.8,5.4-12.5,6.3
	c-1.6,0.3-3.2,0.7-4.7,1.1c-0.3,0.1-0.6,0.2-0.9,0.3c-0.8,0.4-0.9,1.3-0.3,1.9c0.3,0.3,0.7,0.5,1.1,0.6c2,0.8,3.9,1.8,5.8,2.9
	c3.1,1.8,5.2,4.3,6.1,7.8c0.3,1,0.6,2,0.8,3c0.5,1.8,1.8,2.1,3.1,0.8c0.2-0.2,0.4-0.5,0.6-0.7c1.7-2.5,4.1-3.9,7-4.6
	c4.7-1.2,8.7,0.1,11.9,3.7c0.3,0.4,0.6,0.8,1,1.1c0.6,0.5,1.1,0.5,1.7,0c0.2-0.2,0.5-0.5,0.7-0.8c0.8-1.2,1.6-2.4,2.3-3.6
	c1-1.6,2-3.1,3.4-4.4c1.3-1.3,2.9-2.1,4.6-2.7c0.7-0.2,1.4-0.2,2.1-0.1c4.1,0.9,8.1,1.8,12,3.3c0.3,0.1,0.5,0.2,0.8,0.3
	c-0.1,0.1-0.1,0.2-0.1,0.2c-3.2,2.3-5.4,5.4-7.5,8.6c-1.8,2.8-3.7,5.5-5.5,8.2c-0.3,0.4-0.6,0.6-1.2,0.7c-2.5,0.1-4.7,3-4.2,5.5
	c0.3,1.6,1.7,2.5,3.4,2.3c2-0.3,4-2.5,4.2-4.6c0.1-0.9-0.2-1.6-0.8-2.4c2.8-2.9,5.1-6.3,7.5-9.6c0,0.4-0.1,0.9-0.1,1.3
	c-0.3,2-0.2,3.9,0.4,5.8c0.1,0.5,0,0.7-0.3,1.1c-1.3,1.6-1.3,4.1,0,5.7c1.3,1.6,3.2,1.8,4.8,0.3c1.9-1.8,1.7-5.1-0.5-6.6
	c-0.7-0.5-1.5-0.7-2.4-0.7c-0.1-0.5-0.2-1-0.2-1.4c-0.2-2.4,0.1-4.8,0.9-7.1c0.7-2.1,1.9-3.9,3.4-5.5c0.1-0.1,0.3-0.3,0.5-0.4
	c0.5-0.4,1-0.5,1.6-0.2c7.5,3.5,13.9,8.4,19.5,14.4c1.8,2,3.7,4,5.6,6c0.2,0.2,0.4,0.4,0.5,0.7c1.9,3.4,3.8,6.8,5.4,10.4
	c0.3,0.8,0.4,1.5,0.3,2.3c-0.6,5.3-2.6,10.1-5.1,14.8c-2.4,4.5-5.3,8.5-8.9,12.1c-2.2,2.2-4.5,4.3-6.7,6.5c-0.2,0.2-0.5,0.5-0.9,0.8
	c0-0.4,0-0.6,0-0.9c0.2-2.7,0.4-5.5,0.6-8.2c0.2-2.2,0.3-4.4,0.4-6.7c0.2-5.5,0.6-11.1,0.4-16.7c-0.1-2.6-0.2-5.3-0.9-7.8
	c-0.2-0.7-0.5-1.5-0.8-2.2c-0.3-0.6-0.8-1.1-1.4-1.4c-1.3-0.7-2.7-0.2-3.4,1.1c-0.2,0.4-0.3,0.9-0.5,1.3c-0.9,3-1.3,6-1.9,9.1
	c-1,5.1-1.9,10.2-3,15.3c-0.5,2.7-1.5,5.2-2.5,7.7c-0.6,1.6-1.5,3-2.5,4.4c-0.6,0.7-1.2,1.4-2,1.9c-1.2,0.7-2.1,0.5-3.1-0.4
	c-0.7-0.6-1-1.5-1.3-2.3c-0.5-2.2-0.6-4.3-0.5-6.5c0.2-4.1,0.4-8.3,0.6-12.4c0.1-1.7,0-3.5-0.4-5.2c-0.1-0.5-0.3-1.1-0.5-1.5
	c-0.8-1.5-2.5-1.6-3.5-0.2c-0.4,0.6-0.7,1.3-1,2c-1.1,2.9-1.6,6-2.1,9.1c-0.5,3.4-0.8,6.8-0.8,10.3c0,0.2,0,0.3-0.1,0.6
	c-2.2-0.5-4.2-1-6.2-2.1c0.2-0.4,0.3-0.7,0.5-1.1c1.4-3.4,2.7-6.8,3.3-10.4c0.6-3.7,0.8-7.3-0.1-10.9c-0.3-1.2-0.7-2.3-1.4-3.4
	c-2.1-3.3-5.7-4.5-9.4-3c-1.8,0.7-3.3,1.9-4.8,3.1c-2,1.7-3.6,3.7-4.9,5.9c-1,1.6-1.9,3.3-2.9,5c-0.1,0.2-0.3,0.5-0.6,0.7
	c0-0.3-0.1-0.7-0.1-1c-0.2-1.4-0.3-2.8-0.5-4.2c-0.1-0.6-0.3-1.1-0.5-1.6c-0.2-0.4-0.4-0.8-0.7-1.1c-0.9-1-2.2-0.9-2.8,0.3
	c-0.4,0.9-0.8,1.9-0.9,2.9c-0.4,2.6-0.7,5.2-0.9,7.8c-0.3,3.9-0.5,7.8-0.7,11.7c0,0.7-0.1,1.5-0.1,2.3c-2,0.1-3.8,0-5.8-0.3
	c0.2-0.4,0.3-0.6,0.4-0.9c1.5-3,2.6-6.2,3.1-9.5c0.6-4.4,0.7-8.8-0.6-13.1c-0.5-1.7-1.2-3.3-2.2-4.7c-2.3-3-5.7-4.2-9.3-3.1
	c-2.7,0.8-5,2.3-7,4.2c-1.3,1.3-2.4,2.6-3.4,4.2c-0.2,0.2-0.3,0.5-0.5,0.8c-0.1-0.2-0.2-0.4-0.3-0.5c-0.2-0.4-0.4-0.9-0.7-1.3
	c-0.4-0.7-1-1.2-1.8-1.5c-1.5-0.6-2.9,0-3.6,1.4c-2.4,4.7-4.2,9.7-5.7,14.8c-1.2,4-2.5,8-4.1,11.9c-0.7,1.8-1.6,3.5-2.7,5.1
	c-0.4,0.5-0.8,1.1-1.3,1.5c-0.3,0.3-0.8,0.6-1.2,0.9c-0.4-0.4-0.4-0.9-0.4-1.3c0-1.6,0-3.2,0.1-4.8c0.5-6.4,1.9-12.6,3.4-18.7
	c0.5-2.2,0.9-4.4,1-6.6c0-0.6,0-1.3-0.2-1.9c-0.1-0.4-0.3-0.8-0.5-1.1c-0.6-0.8-1.5-1-2.4-0.5c-0.5,0.3-1,0.8-1.3,1.3
	c-0.5,0.7-0.8,1.5-1.1,2.3c-0.1,0.3-0.2,0.6-0.4,0.9c-0.8-0.3-1.5-0.6-2.3-0.8c-2.1-0.5-4.3-0.2-6.4,0.2c-5.1,1.1-9,4-12.3,7.9
	c-3.7,4.5-5.8,9.7-6.5,15.5c-0.3,3.2,0,6.3,1.4,9.3c0.9,2.1,2.3,3.8,4.3,5c2.7,1.6,5.3,1.5,7.8-0.2c1.3-0.8,2.2-2,3.1-3.1
	c1.8-2.4,3.1-5.1,4.4-7.9c0.6-1.3,1.2-2.7,1.7-4.1c0.1-0.2,0.2-0.5,0.4-0.7c0,0.2,0,0.4,0,0.6c-0.1,2.2-0.3,4.5,0.1,6.7
	c0.2,0.9,0.5,1.8,0.8,2.7c0.3,0.9,1,1.6,1.8,2.2c1.3,1,2.7,1.1,4.2,0.5c0.8-0.4,1.5-0.9,2.1-1.5c1.2-1.3,2-2.7,2.8-4.3
	c2-4.2,3.5-8.6,4.9-13.1c1.1-3.6,2.3-7.2,3.5-10.8c0.1-0.3,0.2-0.6,0.4-0.8c0.1,0,0.1,0,0.2,0c0,0.5,0,1-0.1,1.5
	c-0.1,2.2-0.2,4.4-0.3,6.6c-0.2,4.6-0.3,9.1-0.4,13.7c-0.1,4.4,0,8.7,0,13.1c0,4.2,0,8.3,0,12.5c0,2.3-0.1,4.7,0.2,7
	c0.1,0.7,0.1,1.5,0.2,2.2c0.2,1.3,1.1,2.1,2.3,2.4c1.3,0.3,2.4-0.2,3.1-1.4c0.3-0.4,0.5-1,0.6-1.5c0.3-1.8,0.6-3.5,0.6-5.3
	c0.3-6,0.5-12,0.7-18c0.2-6.4,0.4-12.9,0.6-19.3c0.1-3.8,0.1-7.5,0.1-11.3c0-0.3,0.1-0.6,0.2-0.9c1.3-2.7,3.2-5.1,5.7-6.9
	c1.3-0.9,2.6-1.7,4.2-2c2.2-0.4,2.5-0.1,3.1,1.7c0.5,1.4,0.8,2.8,1,4.2c0.7,4.9,0.4,9.8-1.1,14.5c-0.2,0.6-0.4,1.2-0.7,1.9
	c-0.5-0.1-0.9-0.2-1.3-0.4c-1.8-0.6-3.6-0.7-5.4-0.3c-4.1,1-6.2,5.8-4.2,9.5c0.9,1.7,2.4,2.6,4.2,2.8c1.7,0.2,3.3-0.1,4.7-1
	c2.4-1.4,4.4-3.2,6.1-5.4c0.2-0.3,0.4-0.6,0.7-0.9c0.1,0,0.3,0,0.4,0c2.2,0.1,4.4,0.2,6.7,0.3c0,0.3,0,0.6,0,0.8
	c0,10.1,0,20.1,0.1,30.2c0,2,0.3,4,0.4,6.1c0,0.2,0.1,0.3,0.1,0.5c0.3,1.3,1.4,2.2,2.7,2.2c1.3,0,2.3-1,2.5-2.3
	c0.2-1.1,0.3-2.2,0.3-3.4c0.1-2.9,0.3-5.7,0.3-8.6c0.2-5.9,0.3-11.7,0.5-17.6c0.2-7,0.3-13.9,0.5-20.9c0-0.4,0.1-0.8,0.2-1.1
	c2.2-4,4.5-7.9,7.5-11.4c1-1.2,2.1-2.3,3.4-3.2c0.6-0.4,1.2-0.7,1.8-1.1c0.4-0.2,0.8-0.3,1.2-0.4c1.5-0.3,2.2,0.1,2.7,1.5
	c0.4,1.1,0.4,2.3,0.3,3.4c-0.1,2.4-0.5,4.7-1.2,7c-0.8,2.8-1.8,5.6-3,8.2c-0.1,0.2-0.2,0.4-0.3,0.7c-0.4-0.1-0.9-0.1-1.3-0.2
	c-2.2-0.1-4.3,0.3-6.1,1.7c-1.7,1.3-2.6,3.1-3.1,5.1c-0.5,2.2-0.3,4.3,0.7,6.3c0.9,1.8,2.3,3,4.4,3.2c0.9,0.1,1.8-0.1,2.6-0.5
	c1.4-0.6,2.5-1.4,3.6-2.3c2-1.7,3.5-3.8,4.8-6.1c0.2-0.3,0.4-0.6,0.6-1.1c2.4,1.1,4.9,1.8,7.5,2.3c0.1,0.6,0.3,1.3,0.4,1.9
	c0.7,2.8,2.1,5.1,4.6,6.6c3.4,2.1,7.2,1.8,10.1-1.3c0.4-0.4,0.8-0.9,1.1-1.3c1-1.4,1.8-2.8,2.5-4.4c1.7-3.9,2.8-7.9,3.6-12.1
	c0.1-0.3,0.1-0.6,0.3-0.9c0,1.3-0.1,2.5-0.2,3.8c-0.1,2.4-0.3,4.8-0.5,7.2c-0.3,4.6-0.7,9.2-1.1,13.8c0,0.6-0.3,1-0.8,1.4
	c-3.1,2.2-6.1,4.4-8.8,7c-2,1.9-3.9,3.9-5.3,6.3c-1.7,2.9-2.8,6-2.9,9.3c-0.1,2.2,0,4.4,0.6,6.5c1,3.4,3.1,6,6.2,7.7
	c2.6,1.4,5.2,1.2,7.8-0.1c2.4-1.2,4.2-3.1,5.4-5.5c1.2-2.4,2-4.9,2.6-7.4c0.9-3.7,1.4-7.4,1.9-11.1c0.5-4,1-8.1,1.5-12.1
	c0.2-1.5,0.3-3,0.4-4.5c0-0.5,0.2-0.9,0.6-1.2c3.4-2.7,6.7-5.5,9.7-8.6c5.1-5.4,9.1-11.5,11.9-18.4c0.7-1.6,1-3.4,1.5-5
	c0.1-0.2,0.1-0.4,0.2-0.8c0.1,0.3,0.2,0.5,0.3,0.6c3.2,8.4,5.6,17,7.3,25.8C-212.1,1012.3-211.8,1018-212.2,1023.7z"/>
<path class="st1" d="M-282.9,1074.5c-0.2,1.2-0.5,2.4-0.6,3.7c-0.4,3-0.7,6.1-1,9.1c-0.1,0.5-0.1,1-0.1,1.6c0.1,1.3-0.3,2.4-1,3.4
	c-0.6,0.9-1.1,1.8-1.6,2.7c-0.2,0.3-0.6,0.6-0.9,1c-0.4-0.6-0.4-1.2-0.5-1.7c-0.3-2.3-0.2-4.5,0.1-6.7c0.5-2.8,1.1-5.6,2.1-8.2
	c0.6-1.5,1.3-2.9,2.4-4.1c0.3-0.3,0.6-0.6,1-0.8C-283,1074.5-282.9,1074.5-282.9,1074.5z"/>
<path class="st1" d="M-294.2,1059.2c1.7-9.8,3-13.6,7.2-22.5c0.2,1.1,0.3,2.1,0.2,3.2c-0.1,3.7-1.1,7.2-2.2,10.8
	C-291.3,1058.1-293.3,1058.6-294.2,1059.2z"/>
<path class="st1" d="M-305.9,1080.5c-0.3,2-0.5,4.1-0.7,6.1c-0.2,2-0.3,4-0.5,6c0,0.3-0.1,0.6-0.2,0.9c-1.1,2.4-2.2,4.8-3.7,7.1
	c-0.9,1.5-2,2.8-3.4,3.9c-0.5,0.4-1,0.7-1.7,1.1c-0.2-0.5-0.3-0.7-0.4-1c-0.5-1.5-0.6-3.1-0.6-4.7c-0.3-6.4,1.2-12.5,4.2-18.2
	c0.5-1,1.2-2,2-2.8c0.7-0.7,1.5-0.9,2.5-0.5c0.7,0.3,1.3,0.7,1.9,1C-305.9,1079.6-305.8,1079.9-305.9,1080.5z"/>
<path class="st1" d="M-355.6,1070.4c0.2-4.9,0.4-9.7,0.9-14.5c0.3-3,0.6-5.9,1.3-8.8c0.2-0.9,0.6-1.8,0.9-2.7
	c0.1-0.4,0.4-0.7,0.7-1.1c0.4,0.4,0.7,0.6,0.9,0.9c0.8,1.1,1.2,2.3,1.3,3.6c0.1,1.9-0.1,3.8-0.4,5.7c-0.7,4.7-1.9,9.2-3.7,13.6
	c-0.5,1.1-1,2.1-1.5,3.2c-0.1,0.1-0.2,0.3-0.3,0.5C-355.6,1070.6-355.6,1070.5-355.6,1070.4z"/>
<path class="st1" d="M-368.6,1087.3c-3.2,1.9-6.5,2.1-9.9,0.3c0.1-1.1,0.2-2.2,0.3-3.2c0.1-1.2,0.2-2.3-0.1-3.5
	c0-0.2-0.1-0.3-0.1-0.5c-0.4-1.1-1.3-1.4-2.2-0.7c-0.6,0.5-1,1.1-1.5,1.7c-0.2,0.2-0.3,0.5-0.6,0.9c-0.3-0.8-0.4-1.4-0.4-2.1
	c-0.1-3.3,1.1-6.1,3.3-8.5c0.7-0.7,1.6-1.2,2.6-1.5c0.8-0.2,1.5-0.2,2.3,0.1c1.7,0.7,3,1.9,3.9,3.5c1.3,2.3,2.2,4.8,2.4,7.4
	c0.2,1.7,0.2,3.4,0.3,5.1C-368.2,1086.8-368.2,1087.1-368.6,1087.3z"/>
<path class="st1" d="M-368.4,1090.1c-0.2,1-0.3,1.9-0.4,2.7c-0.4,2.3-0.9,4.5-1.7,6.7c-0.6,1.4-1.3,2.8-2.3,4
	c-0.4,0.5-0.9,0.9-1.4,1.2c-0.7,0.4-0.9,0.4-1.4-0.2c-0.9-0.8-1.5-1.8-1.9-2.9c-1-2.7-1.5-7.8-1.1-10.8
	C-375.2,1092-371.8,1091.9-368.4,1090.1z"/>
<path class="st1" d="M-387.1,1064.2c0.2-1.4,0.4-2.7,0.6-4.1c0.8-5.8,1.9-11.5,3.3-17.2c0.7-2.9,1.5-5.9,2.6-8.7
	c0.5-1.2,1.1-2.3,1.7-3.5c0.1-0.3,0.4-0.5,0.6-0.8c0.7-0.7,1-0.7,1.6,0.1c0.7,1,0.9,2.2,0.9,3.4c0.1,3.1-0.4,6.1-1.3,9
	c-2.3,7.4-5.3,14.4-9.2,21.1c-0.2,0.3-0.4,0.6-0.5,0.9C-387,1064.3-387.1,1064.3-387.1,1064.2z"/>
<path class="st1" d="M-384.5,986.5c0.4-3.1,0.9-6.2,1.3-9.4c0.5-3.8,1.1-7.7,1.6-11.5c0.8-5.8,1.6-11.6,2.7-17.3
	c0.8-4.3,1.7-8.6,2.9-12.8c0.8-2.7,1.6-5.4,2.9-7.9c0.4-0.9,1-1.7,1.5-2.5c0.2-0.3,0.5-0.6,0.8-0.9c1.1-1,2.2-1.1,3.4-0.2
	c1.4,1,2.4,2.4,3,3.9c0.8,1.9,1.2,3.9,1.4,6c0.4,6.2-0.6,12.2-2.4,18.1c-2.7,9.2-7.1,17.8-12.6,25.9c-1.8,2.7-3.8,5.3-5.8,7.9
	c-0.2,0.2-0.4,0.4-0.6,0.7C-384.4,986.5-384.5,986.5-384.5,986.5z"/>
<path class="st1" d="M-357.7,985.7c-0.3,1.3-0.7,2.4-0.9,3.7c-0.7,3.3-2.1,6.3-3.3,9.4c-1.5,3.8-3.2,7.5-5.4,11.1
	c-0.9,1.5-1.8,3-3.2,4.2c-0.5,0.5-1.1,0.9-1.8,1.2c-1,0.5-1.9,0.3-2.6-0.5c-0.5-0.6-0.9-1.3-1.3-2.1c-0.9-2.1-1-4.4-0.8-6.7
	c0.4-4.3,1.7-8.4,4.1-12c1.3-2,2.8-3.7,4.7-5.1c2.9-2.2,6.2-3.2,9.8-3.3c0.1,0,0.3,0,0.4,0C-357.9,985.6-357.9,985.7-357.7,985.7z"
	/>
<path class="st1" d="M-321.3,1002.5c-0.9,1.8-2.1,3.3-3.9,4.3c-0.6,0.3-1.2,0.4-1.8,0c-0.6-0.4-0.8-1.1-0.7-1.8
	c0.1-1.5,1.1-2.5,2.6-2.9C-323.8,1001.8-322.6,1002.1-321.3,1002.5z"/>
<path class="st1" d="M-289.1,998c-1.4,2.6-2.9,5-5,7.1c-0.9-1.7-0.7-3.2,0.1-4.7C-293.1,998.8-291.1,997.9-289.1,998z"/>
<path class="st1" d="M-253.6,1020.4c-0.1,1.2-0.1,2.2-0.2,3.2c-0.3,2.9-0.5,5.8-0.8,8.7c-0.3,3.9-0.7,7.7-1.6,11.5
	c-0.3,1.4-0.9,2.7-1.4,4c-0.4,0.9-1,1.6-1.7,2.3c-1.3,1-2.6,1.1-4,0.2c-1.7-1.1-2.9-2.7-3.5-4.6c-1.3-3.9-1-7.8,0.7-11.6
	c1.3-2.8,3.1-5.2,5.3-7.4c2-2,4.1-3.9,6.4-5.6C-254.2,1020.9-254,1020.7-253.6,1020.4z"/>
</svg>
